<?xml version="1.0" ?>
<!DOCTYPE svg  PUBLIC '-//W3C//DTD SVG 1.1//EN'  'http://www.w3.org/Graphics/SVG/1.1/DTD/svg11.dtd'>
<!-- Uploaded to: SVG Repo, www.svgrepo.com, Generator: SVG Repo Mixer Tools -->
<svg fill="#000000" width="800px" height="800px" viewBox="0 0 250 250" style="fill-rule:evenodd;clip-rule:evenodd;stroke-linecap:round;stroke-linejoin:round;stroke-miterlimit:1.5;" version="1.1" xml:space="preserve" xmlns="http://www.w3.org/2000/svg" xmlns:serif="http://www.serif.com/" xmlns:xlink="http://www.w3.org/1999/xlink">
<g transform="matrix(1.0735,0,0,1.0735,-9.18709,-3.83727)">
<path d="M136.375,25.74L113.625,25.74C113.625,15.944 118.722,7.99 125,7.99C131.278,7.99 136.375,15.944 136.375,25.74Z" style="fill:none;stroke:black;stroke-width:6.99px;"/>
</g>
<g transform="matrix(0.88475,0,0,0.917228,25.6853,-19.4588)">
<path d="M172.918,99.824L51.585,99.824L81.918,47.157L142.585,47.157L172.918,99.824Z" style="fill:rgb(15,169,84);"/>
</g>
<path d="M151.837,23.795L178.675,72.102L161.675,72.102L134.837,23.795L151.837,23.795Z" style="fill:rgb(14,124,63);"/>
<g transform="matrix(0.88475,0,0,0.917228,25.6853,-19.4588)">
<path d="M172.918,99.824L51.585,99.824L81.918,47.157L142.585,47.157L172.918,99.824Z" style="fill:none;stroke:black;stroke-width:8.32px;"/>
</g>
<g transform="matrix(0.752037,0,0,0.239498,40.5825,221.833)">
<path d="M172.918,99.824L51.585,99.824L57.652,47.157L166.852,47.157L172.918,99.824Z" style="fill:rgb(15,169,84);"/>
</g>
<path d="M166.061,233.127L170.624,245.74L153.624,245.74L149.061,233.127L166.061,233.127Z" style="fill:rgb(14,124,63);"/>
<g transform="matrix(0.752037,0,0,0.239498,40.5825,221.833)">
<path d="M172.918,99.824L51.585,99.824L57.652,47.157L166.852,47.157L172.918,99.824Z" style="fill:none;stroke:black;stroke-width:13.44px;"/>
</g>
<path d="M154.572,72.102L162.572,72.102L162.572,233.127L87.428,233.127L87.428,225.127L154.572,225.127L154.572,72.102Z" style="fill:rgb(157,231,215);"/>
<g transform="matrix(1.04007,0,0,1.08328,-4.66331,-4.52908)">
<rect height="148.646" style="fill:none;stroke:black;stroke-width:7.06px;" width="72.25" x="88.543" y="70.74"/>
</g>
<g transform="matrix(0.742904,0,0,0.773769,32.3834,52.4562)">
<path d="M160.793,86.348C152.135,82.556 146.506,84 142.665,88.533C137.188,81.712 132.193,79.628 124.668,81.362C120.581,74.085 110.953,74.317 106.746,80.452C104.076,71.622 97.956,68.472 88.543,70.74L88.543,219.386L160.793,219.386L160.793,86.348Z" style="fill:rgb(254,216,128);"/>
</g>
<path d="M137.837,120.289C138.015,120.506 138.192,120.729 138.37,120.96C141.223,117.453 145.405,116.336 151.837,119.27L151.837,222.21L137.837,222.21L137.837,120.289ZM98.163,118.055L98.163,107.193C105.155,105.437 109.702,107.875 111.685,114.707C114.811,109.961 121.964,109.781 125,115.412C128.377,114.601 137.837,122.036 137.837,122.036L137.837,128.365C137.837,128.365 127.004,121.722 124.37,124.96C120.301,119.682 116.59,121.07 111,122.412C108.109,117.051 101.488,113.957 98.163,118.055Z" style="fill:rgb(249,199,81);"/>
<g transform="matrix(0.742904,0,0,0.773769,32.3834,52.4562)">
<path d="M160.793,86.348C152.135,82.556 146.506,84 142.665,88.533C137.188,81.712 132.193,79.628 124.668,81.362C120.581,74.085 110.953,74.317 106.746,80.452C104.076,71.622 97.956,68.472 88.543,70.74L88.543,219.386L160.793,219.386L160.793,86.348Z" style="fill:none;stroke:black;stroke-width:9.89px;"/>
</g>
<g transform="matrix(1.0735,0,0,1.06588,-9.18709,-2.50816)">
<path d="M90,158.84C90,157.798 89.16,156.952 88.125,156.952L84.375,156.952C83.34,156.952 82.5,157.798 82.5,158.84L82.5,190.314C82.5,191.356 83.34,192.202 84.375,192.202L88.125,192.202C89.16,192.202 90,191.356 90,190.314L90,158.84Z" style="fill:rgb(15,169,84);stroke:black;stroke-width:7.01px;"/>
</g>
<g transform="matrix(1.0735,0,0,1.06588,74.0089,-2.50816)">
<path d="M90,158.84C90,157.798 89.16,156.952 88.125,156.952L84.375,156.952C83.34,156.952 82.5,157.798 82.5,158.84L82.5,190.314C82.5,191.356 83.34,192.202 84.375,192.202L88.125,192.202C89.16,192.202 90,191.356 90,190.314L90,158.84Z" style="fill:rgb(14,124,63);stroke:black;stroke-width:7.01px;"/>
</g>
<g transform="matrix(1.13172,0,0,1.0735,-14.427,-15.3671)">
<path d="M90,220.74L61.543,220.74" style="fill:none;stroke:black;stroke-width:6.8px;"/>
</g>
<g transform="matrix(1.13172,0,0,1.0735,92.9227,-15.3671)">
<path d="M90,220.74L61.543,220.74" style="fill:none;stroke:black;stroke-width:6.8px;"/>
</g>
</svg>